<svg id="Capa_1" enable-background="new 0 0 512 512" height="512" viewBox="0 0 512 512" width="512" xmlns="http://www.w3.org/2000/svg"><g><path d="m131 54.489c-4.783 2.761-6.422 8.877-3.661 13.66l30 51.97c2.769 4.798 8.89 6.414 13.66 3.661 4.783-2.761 6.422-8.877 3.661-13.66l-30-51.97c-2.761-4.783-8.876-6.421-13.66-3.661z"/><path d="m472.511 146c-2.761-4.783-8.877-6.421-13.66-3.661l-51.97 30c-4.783 2.761-6.422 8.877-3.661 13.66 2.769 4.798 8.89 6.414 13.66 3.661l51.97-30c4.783-2.761 6.422-8.876 3.661-13.66z"/><path d="m108.781 186c2.761-4.783 1.122-10.899-3.661-13.66l-51.97-30c-4.783-2.762-10.899-1.122-13.66 3.661s-1.122 10.899 3.661 13.66l51.97 30c4.752 2.744 10.882 1.151 13.66-3.661z"/><path d="m367.339 58.15-30 51.97c-2.761 4.783-1.122 10.899 3.661 13.66 4.753 2.744 10.882 1.151 13.66-3.661l30-51.97c2.761-4.783 1.122-10.899-3.661-13.66s-10.899-1.122-13.66 3.661z"/><path d="m246 31v60c0 5.523 4.477 10 10 10s10-4.477 10-10v-60c0-5.523-4.477-10-10-10s-10 4.477-10 10z"/><path d="m436 281h66c5.523 0 10-4.477 10-10s-4.477-10-10-10h-66c-5.523 0-10 4.477-10 10s4.477 10 10 10z"/><path d="m10 261c-5.523 0-10 4.477-10 10s4.477 10 10 10h66c5.523 0 10-4.477 10-10s-4.477-10-10-10z"/><circle cx="256" cy="481" r="10"/><path d="m10 491h201c5.523 0 10-4.477 10-10s-4.477-10-10-10h-191v-65.049c16.67 6.467 46.163 16.63 78.358 21.807 46.565 22.207 88.741 33.239 127.595 33.237 70.949-.004 116.495-35.809 161.163-73.684 26.456-22.432 49.447-41.916 74.401-44.431 14.271 9.347 25.29 18.281 30.484 22.679v105.441h-191.001c-5.523 0-10 4.477-10 10s4.477 10 10 10h201c5.523 0 10-4.477 10-10v-120c0-2.817-1.188-5.504-3.273-7.399-28.11-25.557-79.875-58.74-124.315-62.258 1.054-6.706 1.588-13.511 1.588-20.343 0-71.682-58.318-130-130-130s-130 58.318-130 130c0 18.927 4.017 37.226 11.723 54.034-11.089-2.678-21.698-4.034-31.723-4.034-47.181 0-98.892 30.099-101.07 31.381-3.055 1.796-4.93 5.076-4.93 8.619v120c0 5.523 4.477 10 10 10zm364.181-118.942c-51.348 43.538-108.702 92.16-218.642 57.131 41.489-7.452 85.802-39.328 107.528-61.114 25.868-25.799 73.622-57.075 112.933-57.075 20.675 0 42.484 8.053 61.079 17.598-21.903 8.701-41.983 25.726-62.898 43.46zm-118.181-211.058c60.654 0 110 49.346 110 110 0 6.973-.654 13.908-1.944 20.699-58.953 6.692-112.769 59.872-115.123 62.225-.071.071-6.396 6.352-16.756 14.656-17.963-7.545-30.5-15.815-30.633-15.902-.621-.414-14.859-9.833-35.448-18.315-13.144-18.59-20.096-40.431-20.096-63.363 0-60.654 49.346-110 110-110zm-150 180c28.207 0 63.306 14.3 84.453 28.32.499.333 9.415 6.234 23.209 12.857-20.267 13.568-49.347 28.823-77.662 28.823-37.179 0-81.712-12.504-116-26.608v-17.482c13.465-7.142 52.082-25.91 86-25.91z"/></g></svg>